<svg width="21" height="21" viewBox="0 0 21 21" fill="none" xmlns="http://www.w3.org/2000/svg">
<path d="M19.3 10.9746C19.3 10.3246 19.2417 9.69961 19.1333 9.09961H10.5V12.6454H15.4333C15.2208 13.7913 14.575 14.7621 13.6042 15.4121V17.7121H16.5667C18.3 16.1163 19.3 13.7663 19.3 10.9746Z" fill="#4285F4"/>
<path d="M10.5003 19.9328C12.9753 19.9328 15.0503 19.112 16.5669 17.712L13.6044 15.412C12.7836 15.962 11.7336 16.287 10.5003 16.287C8.11276 16.287 6.09193 14.6745 5.37109 12.5078H2.30859V14.8828C3.81693 17.8786 6.91693 19.9328 10.5003 19.9328Z" fill="#34A853"/>
<path d="M5.36953 12.5068C5.1862 11.9568 5.08203 11.3693 5.08203 10.7651C5.08203 10.1609 5.1862 9.57344 5.36953 9.02344V6.64844H2.30703C1.66536 7.92582 1.33147 9.33561 1.33203 10.7651C1.33203 12.2443 1.6862 13.6443 2.30703 14.8818L5.36953 12.5068Z" fill="#FBBC05"/>
<path d="M10.5003 5.24544C11.8461 5.24544 13.0544 5.70794 14.0044 6.61628L16.6336 3.98711C15.0461 2.50794 12.9711 1.59961 10.5003 1.59961C6.91693 1.59961 3.81693 3.65378 2.30859 6.64961L5.37109 9.02461C6.09193 6.85794 8.11276 5.24544 10.5003 5.24544Z" fill="#EA4335"/>
</svg>
