<svg width="18" height="18" viewBox="0 0 18 18" fill="none" xmlns="http://www.w3.org/2000/svg">
<path d="M10.6611 1.66615L10.6614 1.66631L15.4613 5.02459C15.8523 5.2983 16.2226 5.74714 16.4955 6.26982C16.7683 6.7925 16.9252 7.35346 16.9252 7.83324V13.4832C16.9252 15.3781 15.3868 16.9166 13.4919 16.9166H4.50857C2.61486 16.9166 1.07524 15.371 1.07524 13.4749V7.72491C1.07524 7.27954 1.21722 6.74698 1.46572 6.24229C1.71409 5.73784 2.05113 5.29731 2.4065 5.02012L2.40659 5.02005L6.58044 1.76261C6.58062 1.76247 6.5808 1.76233 6.58098 1.76219C7.69501 0.899437 9.50258 0.854414 10.6611 1.66615ZM9.00024 15.0416C9.57202 15.0416 10.0419 14.5717 10.0419 13.9999V11.4999C10.0419 10.9281 9.57202 10.4582 9.00024 10.4582C8.42845 10.4582 7.95857 10.9281 7.95857 11.4999V13.9999C7.95857 14.5717 8.42845 15.0416 9.00024 15.0416Z" fill="#1C2C55" stroke="#1C2C55" stroke-width="0.833333"/>
</svg>
