<svg width="48" height="49" viewBox="0 0 48 49" fill="none" xmlns="http://www.w3.org/2000/svg">
<path d="M23.9977 1.60156L26.5057 1.74244L28.9821 2.16316L31.3959 2.8586L33.7166 3.81988L35.9152 5.03492L37.9638 6.48852L39.8369 8.16236L41.5107 10.0354L42.9643 12.084L44.1793 14.2826L45.1406 16.6033L45.8361 19.0171L46.2568 21.4936L46.3977 24.0016L46.2568 26.5096L45.8361 28.986L45.1406 31.3998L44.1793 33.7205L42.9643 35.9191L41.5107 37.9677L39.8369 39.8408L37.9638 41.5146L35.9152 42.9682L33.7166 44.1832L31.3959 45.1445L28.9821 45.84L26.5057 46.2607L23.9977 46.4016L21.4897 46.2607L19.0132 45.84L16.5994 45.1445L14.2787 44.1832L12.0801 42.9682L10.0315 41.5146L8.15846 39.8408L6.48462 37.9677L5.03102 35.9191L3.81598 33.7205L2.8547 31.3998L2.15926 28.986L1.73854 26.5096L1.59766 24.0016L1.73854 21.4936L2.15926 19.0171L2.8547 16.6033L3.81598 14.2826L5.03102 12.084L6.48462 10.0354L8.15846 8.16236L10.0315 6.48852L12.0801 5.03492L14.2787 3.81988L16.5994 2.8586L19.0132 2.16316L21.4897 1.74244L23.9977 1.60156Z" fill="#F6FEF9"/>
<path d="M42.9046 6.48278C43.1692 5.83907 44.0808 5.83907 44.3454 6.48278L44.636 7.18967C44.7151 7.38208 44.8679 7.53486 45.0603 7.61395L45.7672 7.90455C46.4109 8.16917 46.4109 9.08083 45.7672 9.34545L45.0603 9.63605C44.8679 9.71514 44.7151 9.86792 44.636 10.0603L44.3454 10.7672C44.0808 11.4109 43.1692 11.4109 42.9046 10.7672L42.614 10.0603C42.5349 9.86792 42.3821 9.71514 42.1897 9.63605L41.4828 9.34545C40.8391 9.08083 40.8391 8.16917 41.4828 7.90455L42.1897 7.61395C42.3821 7.53486 42.5349 7.38208 42.614 7.18967L42.9046 6.48278Z" fill="#00A47C"/>
<path d="M24 1.60001L24.0897 0.00249C24.0299 -0.00083 23.9701 -0.00083 23.9103 0.00249L24 1.60001ZM26.508 1.74089L26.776 0.16345C26.7171 0.15345 26.6575 0.14673 26.5977 0.14337L26.508 1.74089ZM28.9845 2.16161L29.4275 0.62417C29.3699 0.60761 29.3115 0.59425 29.2525 0.58425L28.9845 2.16161ZM31.3983 2.85705L32.0106 1.37881C31.9553 1.35593 31.8987 1.33609 31.8412 1.31953L31.3983 2.85705ZM33.719 3.81833L34.493 2.41793C34.4406 2.38897 34.3866 2.36297 34.3313 2.34009L33.719 3.81833ZM35.9175 5.03337L36.8434 3.72849C36.7946 3.69385 36.7439 3.66201 36.6915 3.63305L35.9175 5.03337ZM37.9662 6.48697L39.0323 5.29393C38.9877 5.25409 38.9409 5.21673 38.8921 5.18209L37.9662 6.48697ZM39.8392 8.16081L41.0323 7.09465C40.9923 7.05001 40.95 7.00769 40.9054 6.96777L39.8392 8.16081ZM41.5131 10.0339L42.8179 9.10793C42.7833 9.05913 42.7459 9.01233 42.7061 8.96769L41.5131 10.0339ZM42.9667 12.0825L44.367 11.3086C44.338 11.2562 44.3062 11.2055 44.2715 11.1567L42.9667 12.0825ZM44.1817 14.281L45.6599 13.6687C45.6371 13.6135 45.6111 13.5595 45.5821 13.5071L44.1817 14.281ZM45.143 16.6018L46.6805 16.1588C46.6639 16.1013 46.6441 16.0447 46.6212 15.9894L45.143 16.6018ZM45.8384 19.0155L47.4158 18.7475C47.4058 18.6885 47.3924 18.6301 47.3759 18.5726L45.8384 19.0155ZM46.2591 21.492L47.8567 21.4023C47.8533 21.3426 47.8466 21.283 47.8366 21.224L46.2591 21.492ZM46.4 24L47.9975 24.0897C48.0008 24.0299 48.0008 23.9701 47.9975 23.9103L46.4 24ZM46.2591 26.508L47.8366 26.776C47.8466 26.7171 47.8533 26.6575 47.8567 26.5977L46.2591 26.508ZM45.8384 28.9845L47.3759 29.4275C47.3924 29.3699 47.4058 29.3115 47.4158 29.2525L45.8384 28.9845ZM45.143 31.3983L46.6212 32.0106C46.6441 31.9553 46.6639 31.8987 46.6805 31.8412L45.143 31.3983ZM44.1817 33.719L45.5821 34.493C45.6111 34.4406 45.6371 34.3866 45.6599 34.3313L44.1817 33.719ZM42.9667 35.9175L44.2715 36.8434C44.3062 36.7946 44.338 36.7439 44.367 36.6915L42.9667 35.9175ZM41.5131 37.9662L42.7061 39.0323C42.7459 38.9877 42.7833 38.9409 42.8179 38.8921L41.5131 37.9662ZM39.8392 39.8392L40.9054 41.0323C40.95 40.9923 40.9923 40.95 41.0323 40.9054L39.8392 39.8392ZM37.9662 41.5131L38.8921 42.8179C38.9409 42.7833 38.9877 42.7459 39.0323 42.7061L37.9662 41.5131ZM35.9175 42.9667L36.6915 44.367C36.7439 44.338 36.7946 44.3062 36.8434 44.2715L35.9175 42.9667ZM33.719 44.1817L34.3313 45.6599C34.3866 45.6371 34.4406 45.6111 34.493 45.5821L33.719 44.1817ZM31.3983 45.143L31.8412 46.6805C31.8987 46.6639 31.9553 46.6441 32.0106 46.6212L31.3983 45.143ZM28.9845 45.8384L29.2525 47.4158C29.3115 47.4058 29.3699 47.3924 29.4275 47.3759L28.9845 45.8384ZM26.508 46.2591L26.5977 47.8567C26.6575 47.8533 26.7171 47.8466 26.776 47.8366L26.508 46.2591ZM24 46.4L23.9103 47.9975C23.9701 48.0008 24.0299 48.0008 24.0897 47.9975L24 46.4ZM21.492 46.2591L21.224 47.8366C21.283 47.8466 21.3426 47.8533 21.4023 47.8567L21.492 46.2591ZM19.0155 45.8384L18.5726 47.3759C18.6301 47.3924 18.6885 47.4058 18.7475 47.4158L19.0155 45.8384ZM16.6018 45.143L15.9894 46.6212C16.0447 46.6441 16.1013 46.6639 16.1588 46.6805L16.6018 45.143ZM14.281 44.1817L13.5071 45.5821C13.5595 45.6111 13.6135 45.6371 13.6687 45.6599L14.281 44.1817ZM12.0825 42.9667L11.1567 44.2715C11.2055 44.3062 11.2562 44.338 11.3086 44.367L12.0825 42.9667ZM10.0339 41.5131L8.96769 42.7061C9.01233 42.7459 9.05913 42.7833 9.10793 42.8179L10.0339 41.5131ZM8.16081 39.8392L6.96777 40.9054C7.00769 40.95 7.05001 40.9923 7.09465 41.0323L8.16081 39.8392ZM6.48697 37.9662L5.18209 38.8921C5.21673 38.9409 5.25409 38.9877 5.29393 39.0323L6.48697 37.9662ZM5.03337 35.9175L3.63305 36.6915C3.66201 36.7439 3.69385 36.7946 3.72849 36.8434L5.03337 35.9175ZM3.81833 33.719L2.34009 34.3313C2.36297 34.3866 2.38897 34.4406 2.41793 34.493L3.81833 33.719ZM2.85705 31.3983L1.31953 31.8412C1.33609 31.8987 1.35593 31.9553 1.37881 32.0106L2.85705 31.3983ZM2.16161 28.9845L0.58425 29.2525C0.59425 29.3115 0.60761 29.3699 0.62417 29.4275L2.16161 28.9845ZM1.74089 26.508L0.14337 26.5977C0.14673 26.6575 0.15345 26.7171 0.16345 26.776L1.74089 26.508ZM1.60001 24L0.00249 23.9103C-0.00083 23.9701 -0.00083 24.0299 0.00249 24.0897L1.60001 24ZM1.74089 21.492L0.16345 21.224C0.15345 21.283 0.14673 21.3426 0.14337 21.4023L1.74089 21.492ZM2.16161 19.0155L0.62417 18.5726C0.60761 18.6301 0.59425 18.6885 0.58425 18.7475L2.16161 19.0155ZM2.85705 16.6018L1.37881 15.9894C1.35593 16.0447 1.33609 16.1013 1.31953 16.1588L2.85705 16.6018ZM3.81833 14.281L2.41793 13.5071C2.38897 13.5595 2.36297 13.6135 2.34009 13.6687L3.81833 14.281ZM5.03337 12.0825L3.72849 11.1567C3.69385 11.2055 3.66201 11.2562 3.63305 11.3086L5.03337 12.0825ZM6.48697 10.0339L5.29393 8.96769C5.25409 9.01233 5.21673 9.05913 5.18209 9.10793L6.48697 10.0339ZM8.16081 8.16081L7.09465 6.96777C7.05001 7.00769 7.00769 7.05001 6.96777 7.09465L8.16081 8.16081ZM10.0339 6.48697L9.10793 5.18209C9.05913 5.21673 9.01233 5.25409 8.96769 5.29393L10.0339 6.48697ZM12.0825 5.03337L11.3086 3.63305C11.2562 3.66201 11.2055 3.69385 11.1567 3.72849L12.0825 5.03337ZM14.281 3.81833L13.6687 2.34009C13.6135 2.36297 13.5595 2.38897 13.5071 2.41793L14.281 3.81833ZM16.6018 2.85705L16.1588 1.31953C16.1013 1.33609 16.0447 1.35593 15.9894 1.37881L16.6018 2.85705ZM19.0155 2.16161L18.7475 0.58425C18.6885 0.59425 18.6301 0.60761 18.5726 0.62417L19.0155 2.16161ZM21.492 1.74089L21.4023 0.14337C21.3426 0.14673 21.283 0.15345 21.224 0.16345L21.492 1.74089ZM23.9103 3.19753L26.4183 3.33833L26.5977 0.14337L24.0897 0.00249L23.9103 3.19753ZM26.24 3.31825L28.7165 3.73905L29.2525 0.58425L26.776 0.16345L26.24 3.31825ZM28.5415 3.69913L30.9553 4.39449L31.8412 1.31953L29.4275 0.62417L28.5415 3.69913ZM30.7859 4.33521L33.1067 5.29649L34.3313 2.34009L32.0106 1.37881L30.7859 4.33521ZM32.9451 5.21865L35.1436 6.43377L36.6915 3.63305L34.493 2.41793L32.9451 5.21865ZM34.9917 6.33825L37.0403 7.79185L38.8921 5.18209L36.8434 3.72849L34.9917 6.33825ZM36.9 7.68001L38.7731 9.35385L40.9054 6.96777L39.0323 5.29393L36.9 7.68001ZM38.6462 9.22697L40.32 11.1L42.7061 8.96769L41.0323 7.09465L38.6462 9.22697ZM40.2082 10.9597L41.6618 13.0083L44.2715 11.1567L42.8179 9.10793L40.2082 10.9597ZM41.5663 12.8564L42.7814 15.055L45.5821 13.5071L44.367 11.3086L41.5663 12.8564ZM42.7035 14.8933L43.6648 17.2141L46.6212 15.9894L45.6599 13.6687L42.7035 14.8933ZM43.6055 17.0447L44.3009 19.4585L47.3759 18.5726L46.6805 16.1588L43.6055 17.0447ZM44.261 19.2835L44.6818 21.76L47.8366 21.224L47.4158 18.7475L44.261 19.2835ZM44.6617 21.5817L44.8025 24.0897L47.9975 23.9103L47.8567 21.4023L44.6617 21.5817ZM44.8025 23.9103L44.6617 26.4183L47.8567 26.5977L47.9975 24.0897L44.8025 23.9103ZM44.6818 26.24L44.261 28.7165L47.4158 29.2525L47.8366 26.776L44.6818 26.24ZM44.3009 28.5415L43.6055 30.9553L46.6805 31.8412L47.3759 29.4275L44.3009 28.5415ZM43.6648 30.7859L42.7035 33.1067L45.6599 34.3313L46.6212 32.0106L43.6648 30.7859ZM42.7814 32.9451L41.5663 35.1436L44.367 36.6915L45.5821 34.493L42.7814 32.9451ZM41.6618 34.9917L40.2082 37.0403L42.8179 38.8921L44.2715 36.8434L41.6618 34.9917ZM40.32 36.9L38.6462 38.7731L41.0323 40.9054L42.7061 39.0323L40.32 36.9ZM38.7731 38.6462L36.9 40.32L39.0323 42.7061L40.9054 41.0323L38.7731 38.6462ZM37.0403 40.2082L34.9917 41.6618L36.8434 44.2715L38.8921 42.8179L37.0403 40.2082ZM35.1436 41.5663L32.9451 42.7814L34.493 45.5821L36.6915 44.367L35.1436 41.5663ZM33.1067 42.7035L30.7859 43.6648L32.0106 46.6212L34.3313 45.6599L33.1067 42.7035ZM30.9553 43.6055L28.5415 44.3009L29.4275 47.3759L31.8412 46.6805L30.9553 43.6055ZM28.7165 44.261L26.24 44.6818L26.776 47.8366L29.2525 47.4158L28.7165 44.261ZM26.4183 44.6617L23.9103 44.8025L24.0897 47.9975L26.5977 47.8567L26.4183 44.6617ZM24.0897 44.8025L21.5817 44.6617L21.4023 47.8567L23.9103 47.9975L24.0897 44.8025ZM21.76 44.6818L19.2835 44.261L18.7475 47.4158L21.224 47.8366L21.76 44.6818ZM19.4585 44.3009L17.0447 43.6055L16.1588 46.6805L18.5726 47.3759L19.4585 44.3009ZM17.2141 43.6648L14.8933 42.7035L13.6687 45.6599L15.9894 46.6212L17.2141 43.6648ZM15.055 42.7814L12.8564 41.5663L11.3086 44.367L13.5071 45.5821L15.055 42.7814ZM13.0083 41.6618L10.9597 40.2082L9.10793 42.8179L11.1567 44.2715L13.0083 41.6618ZM11.1 40.32L9.22697 38.6462L7.09465 41.0323L8.96769 42.7061L11.1 40.32ZM9.35385 38.7731L7.68001 36.9L5.29393 39.0323L6.96777 40.9054L9.35385 38.7731ZM7.79185 37.0403L6.33825 34.9917L3.72849 36.8434L5.18209 38.8921L7.79185 37.0403ZM6.43377 35.1436L5.21865 32.9451L2.41793 34.493L3.63305 36.6915L6.43377 35.1436ZM5.29649 33.1067L4.33521 30.7859L1.37881 32.0106L2.34009 34.3313L5.29649 33.1067ZM4.39449 30.9553L3.69913 28.5415L0.62417 29.4275L1.31953 31.8412L4.39449 30.9553ZM3.73905 28.7165L3.31825 26.24L0.16345 26.776L0.58425 29.2525L3.73905 28.7165ZM3.33833 26.4183L3.19753 23.9103L0.00249 24.0897L0.14337 26.5977L3.33833 26.4183ZM3.19753 24.0897L3.33833 21.5817L0.14337 21.4023L0.00249 23.9103L3.19753 24.0897ZM3.31825 21.76L3.73905 19.2835L0.58425 18.7475L0.16345 21.224L3.31825 21.76ZM3.69913 19.4585L4.39449 17.0447L1.31953 16.1588L0.62417 18.5726L3.69913 19.4585ZM4.33521 17.2141L5.29649 14.8933L2.34009 13.6687L1.37881 15.9894L4.33521 17.2141ZM5.21865 15.055L6.43377 12.8564L3.63305 11.3086L2.41793 13.5071L5.21865 15.055ZM6.33825 13.0083L7.79185 10.9597L5.18209 9.10793L3.72849 11.1567L6.33825 13.0083ZM7.68001 11.1L9.35385 9.22697L6.96777 7.09465L5.29393 8.96769L7.68001 11.1ZM9.22697 9.35385L11.1 7.68001L8.96769 5.29393L7.09465 6.96777L9.22697 9.35385ZM10.9597 7.79185L13.0083 6.33825L11.1567 3.72849L9.10793 5.18209L10.9597 7.79185ZM12.8564 6.43377L15.055 5.21865L13.5071 2.41793L11.3086 3.63305L12.8564 6.43377ZM14.8933 5.29649L17.2141 4.33521L15.9894 1.37881L13.6687 2.34009L14.8933 5.29649ZM17.0447 4.39449L19.4585 3.69913L18.5726 0.62417L16.1588 1.31953L17.0447 4.39449ZM19.2835 3.73905L21.76 3.31825L21.224 0.16345L18.7475 0.58425L19.2835 3.73905ZM21.5817 3.33833L24.0897 3.19753L23.9103 0.00249L21.4023 0.14337L21.5817 3.33833Z" fill="#F6FEF9"/>
<path d="M12.1836 24.1411L18.9345 30.9559C19.5564 31.5838 20.5646 31.5838 21.1866 30.9559L35.8143 16.1895" stroke="#00A47C" stroke-width="2.4" stroke-linecap="round" stroke-linejoin="round"/>
<path d="M5.66068 6.47867C5.92305 5.84044 6.82695 5.84044 7.08932 6.47868L7.60245 7.72688C7.68087 7.91765 7.83235 8.06913 8.02312 8.14755L9.27132 8.66068C9.90956 8.92305 9.90956 9.82695 9.27132 10.0893L8.02312 10.6024C7.83235 10.6809 7.68087 10.8323 7.60245 11.0231L7.08932 12.2713C6.82695 12.9096 5.92305 12.9096 5.66068 12.2713L5.14755 11.0231C5.06913 10.8323 4.91765 10.6809 4.72688 10.6024L3.47868 10.0893C2.84044 9.82695 2.84044 8.92305 3.47868 8.66068L4.72688 8.14755C4.91765 8.06913 5.06913 7.91765 5.14755 7.72688L5.66068 6.47867Z" fill="#00A47C"/>
<path d="M29.365 43.4255C29.5983 42.8582 30.4017 42.8582 30.635 43.4255L31.0911 44.535C31.1608 44.7046 31.2954 44.8392 31.465 44.9089L32.5745 45.365C33.1418 45.5983 33.1418 46.4017 32.5745 46.635L31.465 47.0911C31.2954 47.1608 31.1608 47.2954 31.0911 47.465L30.635 48.5745C30.4017 49.1418 29.5983 49.1418 29.365 48.5745L28.9089 47.465C28.8392 47.2954 28.7046 47.1608 28.535 47.0911L27.4255 46.635C26.8582 46.4017 26.8582 45.5983 27.4255 45.365L28.535 44.9089C28.7046 44.8392 28.8392 44.7046 28.9089 44.535L29.365 43.4255Z" fill="#00A47C"/>
</svg>
